<svg xmlns="http://www.w3.org/2000/svg" width="50" height="45.762"><path d="M314.62 138.867a9.228 9.228 0 0 1-1.415-.51 5.53 5.53 0 0 0-1.315-.484 5.4 5.4 0 0 1-.945-.442l.041-.133h1.221a2.807 2.807 0 0 0 .747-2.241c0-.034-.011-.06-.017-.092a6.267 6.267 0 0 0-.206-1.165 11.9 11.9 0 0 0-.455-1.241l-.056.021-.109 1.572-.1.018a1 1 0 0 1-.2-.227 13.151 13.151 0 0 1-.672-1.619 10.737 10.737 0 0 0-.685-2.235 4.354 4.354 0 0 0-.976-1.307v1.164a7.371 7.371 0 0 0-3.4-2.386 3.693 3.693 0 0 1 .844 1.447 8.279 8.279 0 0 1-1.521-.817c-.473-.343-.865-.794-1.325-1.157a4.016 4.016 0 0 0-1.615-.742l.51 1.173-.085.054a5.026 5.026 0 0 0-4.063-.518l1.381.453c-.577.2-1.136.313-1.676.485a1.352 1.352 0 0 1-.963-.009c-.225-.089-.463-.144-.695-.213l-.034.057.374.4c-.618.45-1.21.884-1.805 1.313-.119.086-.24.169-.36.255q-1.175-.627-2.342-1.267c-.259-.143-.608-.2-.687-.528a4.406 4.406 0 0 1-.419.2c-.033.012-.1-.057-.145-.088l.121-.092c.06-.045.139-.078.177-.137a2.693 2.693 0 0 0 .16-.337l.083.013a5.88 5.88 0 0 0-.241-.856 29.684 29.684 0 0 0-.818-1.66 7.852 7.852 0 0 0-2.684-3.3 2.581 2.581 0 0 0-.771-.366c-.452-.1-.922-.119-1.383-.176a.941.941 0 0 1-.188-.068 2.01 2.01 0 0 0 .025-1.5.3.3 0 0 1 .07-.262 1.86 1.86 0 0 1 1.233-.614.221.221 0 0 0 .122-.022c.064-.043.159-.094.166-.152a.272.272 0 0 0-.112-.2.44.44 0 0 0-.27-.109 4.428 4.428 0 0 0-.84.155c-.36.115-.4.132-.614-.188-.26-.382-.5-.775-.75-1.165-.167-.263-.209-.26-.451-.084a.465.465 0 0 1-.379.068 1.067 1.067 0 0 0-1.054.119 1.242 1.242 0 0 0-.64 1.127 6.166 6.166 0 0 1 1.976.177 3.378 3.378 0 0 1-.351.02c-.555.028-1.114.031-1.665.1a1.6 1.6 0 0 0-1.436 1.157c-.1.313-.025.639.2.689.347.073.705.092 1.059.134l.02-.075-.186-.29.072-.059c.076.083.155.163.227.25.089.108.651.007.672.467l-.62.051.067.2a.588.588 0 0 0-.1.052c-.292.247-.286.241-.558-.01a.331.331 0 0 0-.255-.056 1.1 1.1 0 0 0-.277.136l.023.068.325-.123.036.041-.191.246.234.311-.059.057a1.3 1.3 0 0 1-.153-.124c-.152-.165-.292-.343-.452-.5a.532.532 0 0 0-.286-.16c-.437-.04-.875-.065-1.314-.073a.418.418 0 0 1-.342-.134c-.428-.442-.862-.88-1.315-1.3a4.2 4.2 0 0 1-1.259-2.225.618.618 0 0 1 .1-.452c.231-.306.506-.578.754-.872.044-.052.041-.143.06-.217-.078-.017-.176-.072-.23-.043a4.233 4.233 0 0 0-.421.294c-.07.049-.146.089-.219.134-.035-.072-.1-.144-.1-.213.01-.364.041-.727.059-1.091a2.39 2.39 0 0 0-.007-.421.182.182 0 0 0-.134-.111c-.035 0-.1.071-.114.12-.06.293-.1.589-.161.882a.441.441 0 0 1-.123.251 6.384 6.384 0 0 1-.563.357 2.7 2.7 0 0 0-.316.183.341.341 0 0 0-.138.218 1.472 1.472 0 0 0 .2.906 1.1 1.1 0 0 1 .195.444c.074.4.1.806.176 1.207a8.529 8.529 0 0 0 1.114 2.472 2.823 2.823 0 0 0 1.42 1.033 6.908 6.908 0 0 1 1.594.944 11.118 11.118 0 0 0 1.154 1.009 69.25 69.25 0 0 0 2.869 1.794 5.748 5.748 0 0 1 2 1.95.466.466 0 0 1 .062.3c-.029.169-.114.328-.15.5a1.2 1.2 0 0 0-.051.522 4.069 4.069 0 0 0 1 1.8c.918.936 1.889 1.82 2.831 2.733a7.152 7.152 0 0 1 .965 1.014 7.752 7.752 0 0 1 .888 2.33c.12.417.2.848.3 1.318-.134-.04-.225-.072-.317-.094-.547-.131-1.09-.278-1.641-.384-.39-.075-.792-.085-1.185-.144-.5-.076-.663-.333-.552-.839.827.458 1.787.24 2.669.542-.057-.237-.1-.514-.252-.6a4.013 4.013 0 0 0-.937-.3c-.492-.136-.988-.258-1.479-.4a.293.293 0 0 1-.168-.188 5.329 5.329 0 0 1-.071-.564 8.729 8.729 0 0 0 1.109.394 9.735 9.735 0 0 0 1.244.113c-.131-.244-.237-.41-.311-.59-.054-.131-.13-.126-.249-.13a2.619 2.619 0 0 1-.706-.083c-.362-.112-.7-.28-1.06-.412a.721.721 0 0 1-.4-.708l1.7.5.043-.077a8.1 8.1 0 0 0-.632-.711 69.68 69.68 0 0 0-2.021-1.748.334.334 0 0 0-.3 0c-.619.366-1.253.715-1.85 1.114a11.668 11.668 0 0 0-3.155 1.49c-1.02.7-2.011 1.451-2.969 2.235a2.385 2.385 0 0 1-3.757-.556 15.876 15.876 0 0 1-.851-2.038 11.521 11.521 0 0 0-1.685-3.008 5.257 5.257 0 0 0-1.694-1.374c.091-.02.124-.039.151-.031a4.5 4.5 0 0 1 2.449 1.541 14.249 14.249 0 0 1 1.357 2.685 15.587 15.587 0 0 0 1 1.741.91.91 0 0 0 .8.4 3.383 3.383 0 0 1-.339-2.061c.03-.774.074-1.548.109-2.322a3.377 3.377 0 0 0-.321-1.593 6.1 6.1 0 0 0-1.9-2.225c-.295-.229-.624-.413-.937-.618a4.62 4.62 0 0 1 .392 2.2 5.459 5.459 0 0 0-4-1.479 6.474 6.474 0 0 0-3.884 1.757c2.254.624 5 2.771 5.06 3.9a5.187 5.187 0 0 0-2.979-.059c.4.245.755.441 1.086.672a3.711 3.711 0 0 1 1.671 2.525 8.061 8.061 0 0 0 .342 1.262c.061.182.327.307.116.55-.018.021.025.1.044.147a3.22 3.22 0 0 0 3.446 1.858c.085-.017.171-.021.257-.031a5.971 5.971 0 0 1-2.225.9 3.408 3.408 0 0 0 .35.136 6.484 6.484 0 0 0 2.142.2 2.636 2.636 0 0 0 2.276-1.388 6.113 6.113 0 0 1 1.409-1.681 6.482 6.482 0 0 1 .6-.424c-.239.749-.494 1.451-.684 2.17a8.119 8.119 0 0 0-.106 3.208 9.807 9.807 0 0 0 1.065 3.289.413.413 0 0 1 0 .328 7.759 7.759 0 0 1-.623 1.156c-.557.769-1.162 1.5-1.739 2.259a1.017 1.017 0 0 0-.229 1.04 8.953 8.953 0 0 1 .468 4.284.48.48 0 0 0 .134.315 3.231 3.231 0 0 0 .383.332c-.284-.048-.6-.207-.764-.11-.4.239-.76.962-1.157 1.3a10.1 10.1 0 0 0 3.332 1.885 11.635 11.635 0 0 0 .2-4.067 20.945 20.945 0 0 1 0-4.012.48.48 0 0 1 .152-.294c1-.835 2.2-1.768 3.213-2.591.072-.058.218-.12.273-.087.523.313 1.041.633 1.541.979.2.141.161.679-.041.836l-.157-.641c-.515.215-.983.414-1.454.6-.306.123-.329.315-.241.617a14.1 14.1 0 0 0 .59 1.755 9.1 9.1 0 0 0 .909 1.639c.2-.219.363-.38.5-.561a10.84 10.84 0 0 0 1.665-3.486 1.088 1.088 0 0 0-.237-1.175 6.2 6.2 0 0 1-1.376-1.837.4.4 0 0 1 .065-.48 18.326 18.326 0 0 0 1.367-1.849 5.191 5.191 0 0 0 .833-2.3 6.838 6.838 0 0 0-.348-2.8c-.113-.328-.212-.661-.346-1.082a2.773 2.773 0 0 1 .893 1.206c.289.8.519 1.627.785 2.438a.329.329 0 0 0 .194.2 15.453 15.453 0 0 0 2.119.36 15.272 15.272 0 0 0 4.463-.572 4.291 4.291 0 0 0 1.455-.533.224.224 0 0 1 .355.138c.039.11.089.217.133.326a7.338 7.338 0 0 1 .315 2.478.637.637 0 0 1-.446.688c-.2.092-.423.153-.63.238-.666.272-1.449.261-2.024.858.09-.232.022-.353.1-.559-.367-.139-.829-.377-1.177-.513-.151-.059-.191 0-.289.136-.265.376-.624.808-.893 1.244a3.986 3.986 0 0 0-.589 1.228 4.473 4.473 0 0 0-.23 1.5 6.974 6.974 0 0 0 .933-.365 7.455 7.455 0 0 0 1.2-.649 21.9 21.9 0 0 1 2.92-1.379c.544-.278 1.309-.453 1.916-.772a.931.931 0 0 1-.055.21c-.378.517-.748 1.041-1.149 1.539-.089.11-.295.123-.442.191-.085.04-.2.085-.232.159a4.316 4.316 0 0 0-.167.564l-.068-.009-.1-.492c-.341.136-.66.256-.972.392a.9.9 0 0 0-.63.737c-.122 1.058-.254 2.113-.37 3.171a7.01 7.01 0 0 0 0 .748c.112-.023.191-.014.229-.049a19.864 19.864 0 0 0 1.491-1.443c.528-.613.942-1.325 1.472-1.937.677-.782 1.444-1.487 2.129-2.263a6.791 6.791 0 0 0 1.225-1.666 28.055 28.055 0 0 0 1.072-3.224c.268-.9.481-1.824.7-2.74.094-.385.208-.729.632-.88a1.394 1.394 0 0 0 .357-.267 5.1 5.1 0 0 0 1.215-1.556.662.662 0 0 1 1.065-.29c.11.072.205.164.328.263a3.825 3.825 0 0 1 1.706-1.645l-.022-.09-1.845.2c1.852-1.16 2.592-1.759 5.486-1.354 1.244.406 1.23 1.185 1.23 1.185a2.234 2.234 0 0 0-1.976-.644 5.473 5.473 0 0 0-3.488 1.98 3.6 3.6 0 0 0-.724 1.3c1.724-1.257 2.686-1.594 3.484-1.2a2.934 2.934 0 0 0-2.73 1.608 4.037 4.037 0 0 0-.817 2.093 1.809 1.809 0 0 1-.333.982 11.974 11.974 0 0 0-.593 1.1.569.569 0 0 0-.012.42 5.745 5.745 0 0 0 .468.872c.415.632.427.632 1.054.2a17.552 17.552 0 0 1 3.652-2.052 3.727 3.727 0 0 0 1.865-1.306c.258-.379.563-.725.836-1.093a1.94 1.94 0 0 1 1-.711 10.76 10.76 0 0 0 1.29-.556 2.831 2.831 0 0 0 .45-.35c-.143-.057-.217-.089-.297-.122Z" transform="translate(-264.914 -114.275)" style="fill:#ed4f19"/></svg>