<svg xmlns="http://www.w3.org/2000/svg" width="13.473" height="14.97">
    <path
        d="M14.227 13.227H5.245v-1.5h8.982Zm0-2.994H5.245v-1.5h8.982Zm0-2.994H5.245v-1.5h8.982ZM3 16.97l1.123-1.123 1.122 1.123 1.123-1.123 1.123 1.123 1.123-1.123 1.122 1.123 1.123-1.123 1.123 1.123 1.118-1.123 1.123 1.123 1.123-1.123 1.123 1.123V2L15.35 3.123 14.227 2 13.1 3.123 11.982 2l-1.123 1.123L9.736 2 8.614 3.123 7.491 2 6.368 3.123 5.245 2 4.123 3.123 3 2Z"
        transform="translate(-3 -2)" style="fill:#c1c1c1" />
</svg>